<svg xmlns="http://www.w3.org/2000/svg" version="1.1" xmlns:xlink="http://www.w3.org/1999/xlink" xmlns:svgjs="http://svgjs.dev/svgjs" width="2000" height="499" viewBox="0 0 2000 499"><g transform="matrix(1,0,0,1,-1.2121212121212466,0.5880608181855393)"><svg viewBox="0 0 396 99" data-background-color="#000000" preserveAspectRatio="xMidYMid meet" height="499" width="2000" xmlns="http://www.w3.org/2000/svg" xmlns:xlink="http://www.w3.org/1999/xlink"><g id="tight-bounds" transform="matrix(1,0,0,1,0.2400000000000091,-0.11666938076226074)"><svg viewBox="0 0 395.52 99.23333876152454" height="99.23333876152454" width="395.52"><g><svg viewBox="0 0 560.0018963784036 140.50075316144387" height="99.23333876152454" width="395.52"><g transform="matrix(1,0,0,1,164.48189637840355,19.417976739389132)"><svg viewBox="0 0 395.52 101.6647996826656" height="101.6647996826656" width="395.52"><g id="textblocktransform"><svg viewBox="0 0 395.52 101.6647996826656" height="101.6647996826656" width="395.52" id="textblock"><g><svg viewBox="0 0 395.52 101.6647996826656" height="101.6647996826656" width="395.52"><g transform="matrix(1,0,0,1,0,0)"><svg width="395.52" viewBox="4 -32.4 126.03999999999999 32.4" height="101.6647996826656" data-palette-color="#ffffff"><path d="M31.3 0L4 0 4-29.4 35.1-29.4 35.1-24.6 10.6-24.6 10.6-17.7 29.3-17.7 29.3-12.75 10.6-12.75 10.6-4.8 35.3-4.8 37.3-0.55Q37.3-0.35 35.95-0.18 34.6 0 31.3 0L31.3 0ZM57.45 0L47.4 0Q44.9 0 43.55-0.65 42.2-1.3 41.62-2.3 41.05-3.3 40.92-4.4 40.8-5.5 40.8-6.4L40.8-6.4 40.8-16Q40.8-16.75 40.92-17.82 41.05-18.9 41.62-19.95 42.2-21 43.57-21.7 44.95-22.4 47.4-22.4L47.4-22.4 54.35-22.4Q60.6-22.4 63.22-22.08 65.85-21.75 65.85-21.4L65.85-21.4 64.85-17.6Q63.45-17.7 61.3-17.82 59.15-17.95 56.67-18.03 54.2-18.1 51.85-18.1L51.85-18.1 49.3-18.1Q46.9-18.1 46.9-16.1L46.9-16.1 46.9-6.3Q46.85-4.3 49.3-4.3L49.3-4.3 51.85-4.3Q54.55-4.3 57.12-4.38 59.7-4.45 61.85-4.58 64-4.7 65.3-4.8L65.3-4.8 67.3-1.55Q67.3 0 57.45 0L57.45 0ZM76.9 0L70.8 0 70.8-32.4 76.9-32.4 76.9-21.4Q79-21.8 81.95-22.1 84.9-22.4 88.7-22.4L88.7-22.4 91.2-22.4Q93.7-22.4 95.05-21.7 96.4-21 96.97-19.95 97.55-18.9 97.67-17.82 97.8-16.75 97.8-16L97.8-16 97.8 0 91.7 0 91.7-16.1Q91.7-18.1 89.3-18.1L89.3-18.1 78.4-18.1Q77.45-18.1 77.17-17.93 76.9-17.75 76.9-17L76.9-17 76.9 0ZM123.44 0L109.64 0Q106.29 0 104.67-1.35 103.04-2.7 103.04-5.75L103.04-5.75 103.04-16Q103.04-16.75 103.17-17.82 103.29-18.9 103.87-19.95 104.44-21 105.82-21.7 107.19-22.4 109.64-22.4L109.64-22.4 123.44-22.4Q125.94-22.4 127.29-21.7 128.64-21 129.22-19.95 129.79-18.9 129.92-17.82 130.04-16.75 130.04-16L130.04-16 130.04-6.4Q130.04-5.5 129.92-4.4 129.79-3.3 129.19-2.3 128.59-1.3 127.24-0.65 125.89 0 123.44 0L123.44 0ZM111.54-4.3L111.54-4.3 121.54-4.3Q123.99-4.3 123.99-6.3L123.99-6.3 123.99-16.1Q123.99-18.1 121.54-18.1L121.54-18.1 111.54-18.1Q109.14-18.1 109.14-16.1L109.14-16.1 109.14-6.3Q109.14-4.3 111.54-4.3Z" opacity="1" transform="matrix(1,0,0,1,0,0)" fill="#ffffff" class="wordmark-text-0" data-fill-palette-color="primary" id="text-0"></path></svg></g></svg></g></svg></g></svg></g><g><svg viewBox="0 0 140.48127712851857 140.50075316144387" height="140.50075316144387" width="140.48127712851857"><g><svg xmlns="http://www.w3.org/2000/svg" xmlns:xlink="http://www.w3.org/1999/xlink" version="1.1" x="0" y="0" viewBox="5.0760000000000005 6.514 72.1300000463797 72.14" enable-background="new 0 0 82 84.667" xml:space="preserve" height="140.50075316144387" width="140.48127712851857" class="icon-icon-0" data-fill-palette-color="accent" id="icon-0"><path d="M41.137 6.514c-19.881 0-36.061 16.18-36.061 36.07 0 19.891 16.18 36.07 36.061 36.07 19.899 0 36.069-16.18 36.069-36.07C77.207 22.693 61.037 6.514 41.137 6.514zM41.137 74.064c-17.351 0-31.471-14.121-31.471-31.48 0-17.36 14.12-31.48 31.471-31.48 17.359 0 31.479 14.12 31.479 31.48C72.617 59.943 58.497 74.064 41.137 74.064z" fill="#5144ff" data-fill-palette-color="accent"></path><path d="M41.137 15.034c-15.191 0-27.541 12.36-27.541 27.55 0 15.189 12.35 27.55 27.541 27.55 15.199 0 27.549-12.36 27.549-27.55C68.686 27.394 56.336 15.034 41.137 15.034zM41.137 69.324c-14.74 0-26.74-11.99-26.74-26.74s12-26.74 26.74-26.74c14.749 0 26.749 11.99 26.749 26.74S55.886 69.324 41.137 69.324z" fill="#5144ff" data-fill-palette-color="accent"></path><path d="M41.137 17.474c-13.841 0-25.101 11.27-25.101 25.11 0 13.85 11.26 25.109 25.101 25.109 13.85 0 25.119-11.26 25.119-25.109C66.256 28.744 54.987 17.474 41.137 17.474zM41.137 65.314c-12.521 0-22.721-10.201-22.721-22.73 0-12.53 10.2-22.73 22.721-22.73 12.539 0 22.729 10.2 22.729 22.73C63.867 55.113 53.676 65.314 41.137 65.314z" fill="#5144ff" data-fill-palette-color="accent"></path><path d="M39.266 24.954h-0.01c-0.14 0-0.27 0.01-0.4 0.05-7.959 1.02-14.279 7.34-15.289 15.31-0.03 0.12-0.041 0.25-0.041 0.38 0 1.04 0.851 1.89 1.891 1.89h5.529c0.91 0 1.66-0.65 1.841-1.5v-0.01c0.62-3.4 3.25-6.09 6.62-6.79 0.01 0.01 0.02 0 0.02 0 0.1-0.02 0.211-0.04 0.311-0.05 0.81-0.21 1.4-0.95 1.4-1.82v-5.58C41.137 25.793 40.307 24.963 39.266 24.954z" fill="#5144ff" data-fill-palette-color="accent"></path><circle cx="41.141" cy="42.583" r="6.2" fill="#5144ff" data-fill-palette-color="accent"></circle><circle cx="49.686" cy="50.992" r="1.7" fill="#5144ff" data-fill-palette-color="accent"></circle><circle cx="55.135" cy="55.771" r="1.0" fill="#5144ff" data-fill-palette-color="accent"></circle></svg></g></svg></g></svg></g><defs></defs></svg><rect width="395.52" height="99.23333876152454" fill="none" stroke="none" visibility="hidden"></rect></g></svg></g></svg>