<svg xmlns="http://www.w3.org/2000/svg" version="1.1" xmlns:xlink="http://www.w3.org/1999/xlink" xmlns:svgjs="http://svgjs.dev/svgjs" width="128" height="128" viewBox="0 0 128 128"><g transform="matrix(0.8046875,0,0,0.8046875,12.75357762290598,12.760752631578946)"><svg viewBox="0 0 95 95" data-background-color="#000000" preserveAspectRatio="xMidYMid meet" height="128" width="128" xmlns="http://www.w3.org/2000/svg" xmlns:xlink="http://www.w3.org/1999/xlink"><g id="tight-bounds" transform="matrix(1,0,0,1,-0.23388227355405888,-0.24049999999999727)"><svg viewBox="0 0 95.46776454710813 95.481" height="95.481" width="95.46776454710813"><g><svg viewBox="0 0 95.46776454710813 95.481" height="95.481" width="95.46776454710813"><g><svg viewBox="0 0 95.46776454710813 95.481" height="95.481" width="95.46776454710813"><g id="textblocktransform"><svg viewBox="0 0 95.46776454710813 95.481" height="95.481" width="95.46776454710813" id="textblock"><g><svg viewBox="0 0 95.46776454710813 95.481" height="95.481" width="95.46776454710813"><g><svg viewBox="0 0 95.46776454710813 95.481" height="95.481" width="95.46776454710813"><g><svg xmlns="http://www.w3.org/2000/svg" xmlns:xlink="http://www.w3.org/1999/xlink" version="1.1" x="0" y="0" viewBox="5.0760000000000005 6.514 72.1300000463797 72.14" enable-background="new 0 0 82 84.667" xml:space="preserve" height="95.481" width="95.46776454710813" class="icon-icon-0" data-fill-palette-color="accent" id="icon-0"><path d="M41.137 6.514c-19.881 0-36.061 16.18-36.061 36.07 0 19.891 16.18 36.07 36.061 36.07 19.899 0 36.069-16.18 36.069-36.07C77.207 22.693 61.037 6.514 41.137 6.514zM41.137 74.064c-17.351 0-31.471-14.121-31.471-31.48 0-17.36 14.12-31.48 31.471-31.48 17.359 0 31.479 14.12 31.479 31.48C72.617 59.943 58.497 74.064 41.137 74.064z" fill="#5144ff" data-fill-palette-color="accent"></path><path d="M41.137 15.034c-15.191 0-27.541 12.36-27.541 27.55 0 15.189 12.35 27.55 27.541 27.55 15.199 0 27.549-12.36 27.549-27.55C68.686 27.394 56.336 15.034 41.137 15.034zM41.137 69.324c-14.74 0-26.74-11.99-26.74-26.74s12-26.74 26.74-26.74c14.749 0 26.749 11.99 26.749 26.74S55.886 69.324 41.137 69.324z" fill="#5144ff" data-fill-palette-color="accent"></path><path d="M41.137 17.474c-13.841 0-25.101 11.27-25.101 25.11 0 13.85 11.26 25.109 25.101 25.109 13.85 0 25.119-11.26 25.119-25.109C66.256 28.744 54.987 17.474 41.137 17.474zM41.137 65.314c-12.521 0-22.721-10.201-22.721-22.73 0-12.53 10.2-22.73 22.721-22.73 12.539 0 22.729 10.2 22.729 22.73C63.867 55.113 53.676 65.314 41.137 65.314z" fill="#5144ff" data-fill-palette-color="accent"></path><path d="M39.266 24.954h-0.01c-0.14 0-0.27 0.01-0.4 0.05-7.959 1.02-14.279 7.34-15.289 15.31-0.03 0.12-0.041 0.25-0.041 0.38 0 1.04 0.851 1.89 1.891 1.89h5.529c0.91 0 1.66-0.65 1.841-1.5v-0.01c0.62-3.4 3.25-6.09 6.62-6.79 0.01 0.01 0.02 0 0.02 0 0.1-0.02 0.211-0.04 0.311-0.05 0.81-0.21 1.4-0.95 1.4-1.82v-5.58C41.137 25.793 40.307 24.963 39.266 24.954z" fill="#5144ff" data-fill-palette-color="accent"></path><circle cx="41.141" cy="42.583" r="6.2" fill="#5144ff" data-fill-palette-color="accent"></circle><circle cx="49.686" cy="50.992" r="1.7" fill="#5144ff" data-fill-palette-color="accent"></circle><circle cx="55.135" cy="55.771" r="1.0" fill="#5144ff" data-fill-palette-color="accent"></circle></svg></g></svg></g></svg></g></svg></g></svg></g></svg></g><defs></defs></svg><rect width="95.46776454710813" height="95.481" fill="none" stroke="none" visibility="hidden"></rect></g></svg></g></svg>